<svg width="830" height="350" viewBox="0 0 830 350" fill="none" xmlns="http://www.w3.org/2000/svg">
<g clip-path="url(#clip0_65_14)">
<rect width="830" height="350" fill="#101010"/>
<circle cx="673.239" cy="310.435" r="91.2391" fill="#F1F5F9" fill-opacity="0.1"/>
<path d="M844.79 -51.4748L674.047 -51.4748L864.304 401.398L1032.38 401.398L844.79 -51.4748Z" fill="#F1F5F9" fill-opacity="0.1"/>
<path d="M100.5 161H108.3V143.6H127.2V161H135V119H127.2V135.8H108.3V119H100.5V161Z" fill="#F1F5F9"/>
<path d="M147.577 143C148.477 139.1 151.117 136.1 155.677 136.1C159.937 136.1 162.517 139.1 163.177 143H147.577ZM161.977 152C161.377 153.26 159.217 155.3 155.677 155.3C151.417 155.3 148.237 152.36 147.577 148.1H170.377L170.497 147.26C170.557 146.72 170.677 146 170.677 145.1C170.677 136.4 164.077 129.8 155.677 129.8C146.677 129.8 140.077 136.4 140.077 145.7C140.077 155 146.677 161.6 155.677 161.6C165.337 161.6 169.117 154.4 169.777 152H161.977Z" fill="#F1F5F9"/>
<path d="M175.467 161H182.967V119H175.467V161Z" fill="#F1F5F9"/>
<path d="M189.546 161H197.046V119H189.546V161Z" fill="#F1F5F9"/>
<path d="M217.425 154.7C212.925 154.7 209.325 151.1 209.325 145.7C209.325 140.3 212.925 136.7 217.425 136.7C221.925 136.7 225.525 140.3 225.525 145.7C225.525 151.1 221.925 154.7 217.425 154.7ZM217.425 129.8C208.425 129.8 201.825 136.4 201.825 145.7C201.825 155 208.425 161.6 217.425 161.6C226.425 161.6 233.025 155 233.025 145.7C233.025 136.4 226.425 129.8 217.425 129.8Z" fill="#F1F5F9"/>
<path d="M253.102 153.8C253.102 158.36 255.802 161 260.902 161H267.502V154.4H262.702C261.322 154.4 260.602 153.68 260.602 152.3V137.6H267.502V130.4H260.602V121.7H253.102V130.4H248.302V137.6H253.102V153.8Z" fill="#F1F5F9"/>
<path d="M272.58 161H280.08V143.3C280.08 139.4 282.78 136.7 286.68 136.7C290.58 136.7 293.28 139.4 293.28 143.3V161H300.78V142.7C300.78 134.9 295.68 129.8 288.78 129.8C285.9 129.8 283.8 130.7 282.42 131.6C281.64 132.14 280.92 132.74 280.38 133.4H280.08V119H272.58V161Z" fill="#F1F5F9"/>
<path d="M312.457 143C313.357 139.1 315.997 136.1 320.557 136.1C324.817 136.1 327.397 139.1 328.057 143H312.457ZM326.857 152C326.257 153.26 324.097 155.3 320.557 155.3C316.297 155.3 313.117 152.36 312.457 148.1H335.257L335.377 147.26C335.437 146.72 335.557 146 335.557 145.1C335.557 136.4 328.957 129.8 320.557 129.8C311.557 129.8 304.957 136.4 304.957 145.7C304.957 155 311.557 161.6 320.557 161.6C330.217 161.6 333.997 154.4 334.657 152H326.857Z" fill="#F1F5F9"/>
<path d="M340.048 161H347.548V143.3C347.548 139.52 349.468 137.6 353.248 137.6H358.648V130.4H352.648C350.788 130.4 349.468 131.12 348.568 131.78C348.028 132.2 347.608 132.62 347.248 133.1H346.948L346.348 130.4H340.048V161Z" fill="#F1F5F9"/>
<path d="M366.162 143C367.062 139.1 369.702 136.1 374.262 136.1C378.522 136.1 381.102 139.1 381.762 143H366.162ZM380.562 152C379.962 153.26 377.802 155.3 374.262 155.3C370.002 155.3 366.822 152.36 366.162 148.1H388.962L389.082 147.26C389.142 146.72 389.262 146 389.262 145.1C389.262 136.4 382.662 129.8 374.262 129.8C365.262 129.8 358.662 136.4 358.662 145.7C358.662 155 365.262 161.6 374.262 161.6C383.922 161.6 387.702 154.4 388.362 152H380.562Z" fill="#F1F5F9"/>
<path d="M395.852 148.7H401.252L402.452 135.5V119H394.652V135.5L395.852 148.7ZM394.652 161H402.452V152.6H394.652V161Z" fill="#F1F5F9"/>
<path d="M109.8 233H117.6V198.5H130.2V191H97.2V198.5H109.8V233Z" fill="#F1F5F9"/>
<path d="M133.791 233H141.291V215.3C141.291 211.4 143.991 208.7 147.891 208.7C151.791 208.7 154.491 211.4 154.491 215.3V233H161.991V214.7C161.991 206.9 156.891 201.8 149.991 201.8C147.111 201.8 145.011 202.7 143.631 203.6C142.851 204.14 142.131 204.74 141.591 205.4H141.291V191H133.791V233Z" fill="#F1F5F9"/>
<path d="M167.667 233H175.167V202.4H167.667V233ZM167.367 197.6H175.467V190.4H167.367V197.6Z" fill="#F1F5F9"/>
<path d="M179.06 223.7C179.06 225.8 180.86 233.6 192.26 233.6C201.2 233.6 205.46 229.34 205.46 224.3C205.46 218.84 202.16 215.96 195.86 215L190.76 214.22C187.94 213.8 186.56 212.84 186.56 211.4C186.56 209.54 188.36 207.8 191.96 207.8C195.56 207.8 197.66 209.84 197.66 211.7H204.86C204.86 208.1 200.9 201.8 191.96 201.8C183.56 201.8 179.06 206.3 179.06 211.4C179.06 216.5 182.66 219.08 188.96 220.1L193.76 220.88C197.12 221.42 197.96 222.44 197.96 224.3C197.96 226.16 196.52 227.6 192.26 227.6C188.12 227.6 186.26 225.2 186.26 223.7H179.06Z" fill="#F1F5F9"/>
<path d="M222.853 233H230.353V202.4H222.853V233ZM222.553 197.6H230.653V190.4H222.553V197.6Z" fill="#F1F5F9"/>
<path d="M234.246 223.7C234.246 225.8 236.046 233.6 247.446 233.6C256.386 233.6 260.646 229.34 260.646 224.3C260.646 218.84 257.346 215.96 251.046 215L245.946 214.22C243.126 213.8 241.746 212.84 241.746 211.4C241.746 209.54 243.546 207.8 247.146 207.8C250.746 207.8 252.846 209.84 252.846 211.7H260.046C260.046 208.1 256.086 201.8 247.146 201.8C238.746 201.8 234.246 206.3 234.246 211.4C234.246 216.5 237.846 219.08 244.146 220.1L248.946 220.88C252.306 221.42 253.146 222.44 253.146 224.3C253.146 226.16 251.706 227.6 247.446 227.6C243.306 227.6 241.446 225.2 241.446 223.7H234.246Z" fill="#F1F5F9"/>
<path d="M276 233H284.7L287.88 224H305.52L308.7 233H317.4L302.4 191H291L276 233ZM290.4 216.8L296.1 200H297.3L303 216.8H290.4Z" fill="url(#paint0_linear_65_14)"/>
<path d="M320.754 225.8C320.754 230.36 323.454 233 328.554 233H335.154V226.4H330.354C328.974 226.4 328.254 225.68 328.254 224.3V209.6H335.154V202.4H328.254V193.7H320.754V202.4H315.954V209.6H320.754V225.8Z" fill="url(#paint1_linear_65_14)"/>
<path d="M357.961 233H364.261V213.5C364.261 206.96 359.161 201.8 351.361 201.8C343.201 201.8 339.121 206.66 338.461 211.7H345.961C346.261 209.96 348.001 207.8 351.361 207.8C354.721 207.8 356.761 210.14 356.761 213.5V214.1H349.861C341.461 214.1 337.261 218.3 337.261 224.3C337.261 229.34 341.401 233.6 348.361 233.6C351.421 233.6 353.521 232.7 354.961 231.8C355.801 231.26 356.521 230.66 357.061 230H357.361L357.961 233ZM356.761 220.7C356.761 224.96 354.121 227.6 349.561 227.6C346.501 227.6 344.761 226.1 344.761 223.7C344.761 221.3 346.561 219.8 350.461 219.8H356.761V220.7Z" fill="url(#paint2_linear_65_14)"/>
<path d="M370.249 233H377.749V218.6L389.749 233H398.449L385.249 217.4L397.849 202.4H389.149L377.749 216.2V191H370.249V233Z" fill="url(#paint3_linear_65_14)"/>
<path d="M417.701 233H424.001V213.5C424.001 206.96 418.901 201.8 411.101 201.8C402.941 201.8 398.861 206.66 398.201 211.7H405.701C406.001 209.96 407.741 207.8 411.101 207.8C414.461 207.8 416.501 210.14 416.501 213.5V214.1H409.601C401.201 214.1 397.001 218.3 397.001 224.3C397.001 229.34 401.141 233.6 408.101 233.6C411.161 233.6 413.261 232.7 414.701 231.8C415.541 231.26 416.261 230.66 416.801 230H417.101L417.701 233ZM416.501 220.7C416.501 224.96 413.861 227.6 409.301 227.6C406.241 227.6 404.501 226.1 404.501 223.7C404.501 221.3 406.301 219.8 410.201 219.8H416.501V220.7Z" fill="url(#paint4_linear_65_14)"/>
<path d="M429.689 233H437.189V215.3C437.189 211.4 439.889 208.7 443.789 208.7C447.689 208.7 450.389 211.4 450.389 215.3V233H457.889V214.7C457.889 206.9 452.789 201.8 445.889 201.8C443.009 201.8 440.909 202.7 439.529 203.6C438.749 204.14 438.029 204.74 437.489 205.4H437.189L436.589 202.4H429.689V233Z" fill="url(#paint5_linear_65_14)"/>
<path d="M463.273 233H471.673V224.6H463.273V233Z" fill="url(#paint6_linear_65_14)"/>
</g>
<defs>
<linearGradient id="paint0_linear_65_14" x1="282.5" y1="223.5" x2="483.829" y2="235.632" gradientUnits="userSpaceOnUse">
<stop stop-color="#9FD8DC"/>
<stop stop-color="#97CDDF"/>
<stop offset="1" stop-color="#7EA9EA"/>
</linearGradient>
<linearGradient id="paint1_linear_65_14" x1="282.5" y1="223.5" x2="483.829" y2="235.632" gradientUnits="userSpaceOnUse">
<stop stop-color="#9FD8DC"/>
<stop stop-color="#97CDDF"/>
<stop offset="1" stop-color="#7EA9EA"/>
</linearGradient>
<linearGradient id="paint2_linear_65_14" x1="282.5" y1="223.5" x2="483.829" y2="235.632" gradientUnits="userSpaceOnUse">
<stop stop-color="#9FD8DC"/>
<stop stop-color="#97CDDF"/>
<stop offset="1" stop-color="#7EA9EA"/>
</linearGradient>
<linearGradient id="paint3_linear_65_14" x1="282.5" y1="223.5" x2="483.829" y2="235.632" gradientUnits="userSpaceOnUse">
<stop stop-color="#9FD8DC"/>
<stop stop-color="#97CDDF"/>
<stop offset="1" stop-color="#7EA9EA"/>
</linearGradient>
<linearGradient id="paint4_linear_65_14" x1="282.5" y1="223.5" x2="483.829" y2="235.632" gradientUnits="userSpaceOnUse">
<stop stop-color="#9FD8DC"/>
<stop stop-color="#97CDDF"/>
<stop offset="1" stop-color="#7EA9EA"/>
</linearGradient>
<linearGradient id="paint5_linear_65_14" x1="282.5" y1="223.5" x2="483.829" y2="235.632" gradientUnits="userSpaceOnUse">
<stop stop-color="#9FD8DC"/>
<stop stop-color="#97CDDF"/>
<stop offset="1" stop-color="#7EA9EA"/>
</linearGradient>
<linearGradient id="paint6_linear_65_14" x1="282.5" y1="223.5" x2="483.829" y2="235.632" gradientUnits="userSpaceOnUse">
<stop stop-color="#9FD8DC"/>
<stop stop-color="#97CDDF"/>
<stop offset="1" stop-color="#7EA9EA"/>
</linearGradient>
<clipPath id="clip0_65_14">
<rect width="830" height="350" fill="white"/>
</clipPath>
</defs>
</svg>
